<svg width="1000" height="1024" viewBox="0 0 1000 1024" fill="none" xmlns="http://www.w3.org/2000/svg">
<g clip-path="url(#clip0_770_534)">
<path d="M227.43 353.443C214.757 355.747 204.768 365.769 202.49 378.471C200.172 365.822 190.206 355.853 177.57 353.557C190.243 351.253 200.232 341.231 202.51 328.529C204.827 341.178 214.794 351.147 227.43 353.443Z" fill="#2493BF" fill-opacity="0.6" stroke="black"/>
<path d="M227.43 976.44C214.757 978.75 204.768 988.77 202.49 1001.47C200.172 988.82 190.206 978.85 177.57 976.56C190.243 974.25 200.232 964.23 202.51 951.53C204.827 964.18 214.794 974.15 227.43 976.44Z" fill="#2493BF" fill-opacity="0.6" stroke="black"/>
<path d="M76.487 534.911C73.2948 512.483 55.5649 494.748 33.1631 491.594C55.6269 488.43 73.393 470.606 76.513 448.09C79.7051 470.517 97.4351 488.252 119.837 491.406C97.3726 494.57 79.6067 512.395 76.487 534.911Z" fill="#1B57A6" fill-opacity="0.6" stroke="black"/>
<path fill-rule="evenodd" clip-rule="evenodd" d="M7.11717 -300.779C5.48902 -302.407 2.84926 -302.407 1.22111 -300.779C-0.407035 -299.151 -0.407038 -296.511 1.22111 -294.883L339.291 43.187C336.559 46.914 334.945 51.512 334.945 56.487C334.945 68.92 345.025 79 357.458 79C369.892 79 379.972 68.92 379.972 56.487C379.972 44.053 369.892 33.973 357.458 33.973C353.014 33.973 348.87 35.261 345.38 37.484L7.11717 -300.779Z" fill="#2493BF" fill-opacity="0.6"/>
<mask id="mask0_770_534" style="mask-type:luminance" maskUnits="userSpaceOnUse" x="0" y="-302" width="380" height="381">
<path fill-rule="evenodd" clip-rule="evenodd" d="M7.11717 -300.779C5.48902 -302.407 2.84926 -302.407 1.22111 -300.779C-0.407035 -299.151 -0.407038 -296.511 1.22111 -294.883L339.291 43.187C336.559 46.914 334.945 51.512 334.945 56.487C334.945 68.92 345.025 79 357.458 79C369.892 79 379.972 68.92 379.972 56.487C379.972 44.053 369.892 33.973 357.458 33.973C353.014 33.973 348.87 35.261 345.38 37.484L7.11717 -300.779Z" fill="black"/>
</mask>
<g mask="url(#mask0_770_534)">
<path d="M339.291 43.187L340.098 43.779L340.605 43.087L339.998 42.48L339.291 43.187ZM345.38 37.484L344.673 38.191L345.241 38.759L345.917 38.328L345.38 37.484ZM1.92822 -300.072C3.16585 -301.309 5.17243 -301.309 6.41006 -300.072L7.82427 -301.486C5.8056 -303.505 2.53268 -303.505 0.514008 -301.486L1.92822 -300.072ZM1.92822 -295.59C0.690594 -296.828 0.690595 -298.834 1.92822 -300.072L0.514008 -301.486C-1.50467 -299.467 -1.50467 -296.194 0.514005 -294.176L1.92822 -295.59ZM339.998 42.48L1.92822 -295.59L0.514005 -294.176L338.584 43.894L339.998 42.48ZM335.945 56.487C335.945 51.731 337.487 47.339 340.098 43.779L338.485 42.596C335.631 46.488 333.945 51.292 333.945 56.487H335.945ZM357.458 78C345.577 78 335.945 68.368 335.945 56.487H333.945C333.945 69.473 344.472 80 357.458 80V78ZM378.972 56.487C378.972 68.368 369.34 78 357.458 78V80C370.444 80 380.972 69.473 380.972 56.487H378.972ZM357.458 34.973C369.34 34.973 378.972 44.605 378.972 56.487H380.972C380.972 43.501 370.444 32.973 357.458 32.973V34.973ZM345.917 38.328C349.252 36.204 353.21 34.973 357.458 34.973V32.973C352.818 32.973 348.489 34.319 344.843 36.641L345.917 38.328ZM6.41006 -300.072L344.673 38.191L346.087 36.777L7.82427 -301.486L6.41006 -300.072Z" fill="black"/>
</g>
<path fill-rule="evenodd" clip-rule="evenodd" d="M7.11717 324.221C5.48902 322.593 2.84926 322.593 1.22111 324.221C-0.407035 325.849 -0.407038 328.489 1.22111 330.117L339.291 668.187C336.559 671.914 334.945 676.512 334.945 681.487C334.945 693.92 345.025 704 357.458 704C369.892 704 379.972 693.92 379.972 681.487C379.972 669.053 369.892 658.973 357.458 658.973C353.014 658.973 348.87 660.261 345.38 662.484L7.11717 324.221Z" fill="#2493BF" fill-opacity="0.6"/>
<mask id="mask1_770_534" style="mask-type:luminance" maskUnits="userSpaceOnUse" x="0" y="323" width="380" height="381">
<path fill-rule="evenodd" clip-rule="evenodd" d="M7.11717 324.221C5.48902 322.593 2.84926 322.593 1.22111 324.221C-0.407035 325.849 -0.407038 328.489 1.22111 330.117L339.291 668.187C336.559 671.914 334.945 676.512 334.945 681.487C334.945 693.92 345.025 704 357.458 704C369.892 704 379.972 693.92 379.972 681.487C379.972 669.053 369.892 658.973 357.458 658.973C353.014 658.973 348.87 660.261 345.38 662.484L7.11717 324.221Z" fill="black"/>
</mask>
<g mask="url(#mask1_770_534)">
<path d="M339.291 668.187L340.098 668.779L340.605 668.087L339.998 667.48L339.291 668.187ZM345.38 662.484L344.673 663.191L345.241 663.759L345.917 663.328L345.38 662.484ZM1.92822 324.928C3.16585 323.691 5.17243 323.691 6.41006 324.928L7.82427 323.514C5.8056 321.495 2.53268 321.495 0.514008 323.514L1.92822 324.928ZM1.92822 329.41C0.690594 328.172 0.690595 326.166 1.92822 324.928L0.514008 323.514C-1.50467 325.533 -1.50467 328.806 0.514005 330.824L1.92822 329.41ZM339.998 667.48L1.92822 329.41L0.514005 330.824L338.584 668.894L339.998 667.48ZM335.945 681.487C335.945 676.731 337.487 672.339 340.098 668.779L338.485 667.596C335.631 671.488 333.945 676.292 333.945 681.487H335.945ZM357.458 703C345.577 703 335.945 693.368 335.945 681.487H333.945C333.945 694.473 344.472 705 357.458 705V703ZM378.972 681.487C378.972 693.368 369.34 703 357.458 703V705C370.444 705 380.972 694.473 380.972 681.487H378.972ZM357.458 659.973C369.34 659.973 378.972 669.605 378.972 681.487H380.972C380.972 668.501 370.444 657.973 357.458 657.973V659.973ZM345.917 663.328C349.252 661.204 353.21 659.973 357.458 659.973V657.973C352.818 657.973 348.489 659.319 344.843 661.641L345.917 663.328ZM6.41006 324.928L344.673 663.191L346.087 661.777L7.82427 323.514L6.41006 324.928Z" fill="black"/>
</g>
<path fill-rule="evenodd" clip-rule="evenodd" d="M7.11717 947.22C5.48902 945.59 2.84926 945.59 1.22111 947.22C-0.407035 948.85 -0.407038 951.49 1.22111 953.12L339.291 1291.19C336.559 1294.91 334.945 1299.51 334.945 1304.49C334.945 1316.92 345.025 1327 357.458 1327C369.892 1327 379.972 1316.92 379.972 1304.49C379.972 1292.05 369.892 1281.97 357.458 1281.97C353.014 1281.97 348.87 1283.26 345.38 1285.48L7.11717 947.22Z" fill="#2493BF" fill-opacity="0.6"/>
<mask id="mask2_770_534" style="mask-type:luminance" maskUnits="userSpaceOnUse" x="0" y="945" width="380" height="382">
<path fill-rule="evenodd" clip-rule="evenodd" d="M7.11717 947.22C5.48902 945.59 2.84926 945.59 1.22111 947.22C-0.407035 948.85 -0.407038 951.49 1.22111 953.12L339.291 1291.19C336.559 1294.91 334.945 1299.51 334.945 1304.49C334.945 1316.92 345.025 1327 357.458 1327C369.892 1327 379.972 1316.92 379.972 1304.49C379.972 1292.05 369.892 1281.97 357.458 1281.97C353.014 1281.97 348.87 1283.26 345.38 1285.48L7.11717 947.22Z" fill="black"/>
</mask>
<g mask="url(#mask2_770_534)">
<path d="M339.291 1291.19L340.098 1291.78L340.605 1291.09L339.998 1290.48L339.291 1291.19ZM345.38 1285.48L344.673 1286.19L345.241 1286.76L345.917 1286.33L345.38 1285.48ZM1.92822 947.93C3.16585 946.69 5.17243 946.69 6.41006 947.93L7.82427 946.51C5.8056 944.5 2.53268 944.5 0.514008 946.51L1.92822 947.93ZM1.92822 952.41C0.690594 951.17 0.690595 949.17 1.92822 947.93L0.514008 946.51C-1.50467 948.53 -1.50467 951.81 0.514005 953.82L1.92822 952.41ZM339.998 1290.48L1.92822 952.41L0.514005 953.82L338.584 1291.89L339.998 1290.48ZM335.945 1304.49C335.945 1299.73 337.487 1295.34 340.098 1291.78L338.485 1290.6C335.631 1294.49 333.945 1299.29 333.945 1304.49H335.945ZM357.458 1326C345.577 1326 335.945 1316.37 335.945 1304.49H333.945C333.945 1317.47 344.472 1328 357.458 1328V1326ZM378.972 1304.49C378.972 1316.37 369.34 1326 357.458 1326V1328C370.444 1328 380.972 1317.47 380.972 1304.49H378.972ZM357.458 1282.97C369.34 1282.97 378.972 1292.61 378.972 1304.49H380.972C380.972 1291.5 370.444 1280.97 357.458 1280.97V1282.97ZM345.917 1286.33C349.252 1284.2 353.21 1282.97 357.458 1282.97V1280.97C352.818 1280.97 348.489 1282.32 344.843 1284.64L345.917 1286.33ZM6.41006 947.93L344.673 1286.19L346.087 1284.78L7.82427 946.51L6.41006 947.93Z" fill="black"/>
</g>
<path fill-rule="evenodd" clip-rule="evenodd" d="M775.289 333.736C774.308 332.755 772.717 332.755 771.736 333.736C770.755 334.717 770.755 336.308 771.736 337.289L975.483 541.036C973.836 543.282 972.863 546.053 972.863 549.051C972.863 556.545 978.938 562.62 986.432 562.62C993.925 562.62 1000 556.545 1000 549.051C1000 541.558 993.925 535.483 986.432 535.483C983.753 535.483 981.256 536.259 979.152 537.599L775.289 333.736Z" fill="#1B57A6" fill-opacity="0.6"/>
<mask id="mask3_770_534" style="mask-type:luminance" maskUnits="userSpaceOnUse" x="771" y="333" width="229" height="230">
<path fill-rule="evenodd" clip-rule="evenodd" d="M775.289 333.736C774.308 332.755 772.717 332.755 771.736 333.736C770.755 334.717 770.755 336.308 771.736 337.289L975.483 541.036C973.836 543.282 972.863 546.053 972.863 549.051C972.863 556.545 978.938 562.62 986.432 562.62C993.925 562.62 1000 556.545 1000 549.051C1000 541.558 993.925 535.483 986.432 535.483C983.753 535.483 981.256 536.259 979.152 537.599L775.289 333.736Z" fill="black"/>
</mask>
<g mask="url(#mask3_770_534)">
<path d="M975.483 541.036L976.289 541.628L976.797 540.936L976.19 540.329L975.483 541.036ZM979.152 537.599L978.445 538.306L979.013 538.874L979.69 538.442L979.152 537.599ZM772.443 334.443C773.034 333.852 773.992 333.852 774.582 334.443L775.996 333.029C774.625 331.657 772.401 331.657 771.029 333.029L772.443 334.443ZM772.443 336.582C771.852 335.992 771.852 335.034 772.443 334.443L771.029 333.029C769.657 334.401 769.657 336.625 771.029 337.996L772.443 336.582ZM976.19 540.329L772.443 336.582L771.029 337.996L974.776 541.743L976.19 540.329ZM973.863 549.051C973.863 546.273 974.764 543.708 976.289 541.628L974.676 540.445C972.908 542.856 971.863 545.833 971.863 549.051H973.863ZM986.432 561.62C979.49 561.62 973.863 555.993 973.863 549.051H971.863C971.863 557.097 978.386 563.62 986.432 563.62V561.62ZM999 549.051C999 555.993 993.373 561.62 986.432 561.62V563.62C994.478 563.62 1001 557.097 1001 549.051H999ZM986.432 536.483C993.373 536.483 999 542.11 999 549.051H1001C1001 541.006 994.478 534.483 986.432 534.483V536.483ZM979.69 538.442C981.637 537.202 983.949 536.483 986.432 536.483V534.483C983.557 534.483 980.874 535.317 978.615 536.756L979.69 538.442ZM774.582 334.443L978.445 538.306L979.86 536.892L775.996 333.029L774.582 334.443Z" fill="black"/>
</g>
<path fill-rule="evenodd" clip-rule="evenodd" d="M775.289 956.74C774.308 955.75 772.717 955.75 771.736 956.74C770.755 957.72 770.755 959.31 771.736 960.29L975.483 1164.04C973.836 1166.28 972.863 1169.05 972.863 1172.05C972.863 1179.54 978.938 1185.62 986.432 1185.62C993.925 1185.62 1000 1179.54 1000 1172.05C1000 1164.56 993.925 1158.48 986.432 1158.48C983.753 1158.48 981.256 1159.26 979.152 1160.6L775.289 956.74Z" fill="#1B57A6" fill-opacity="0.6"/>
<mask id="mask4_770_534" style="mask-type:luminance" maskUnits="userSpaceOnUse" x="771" y="955" width="229" height="231">
<path fill-rule="evenodd" clip-rule="evenodd" d="M775.289 956.74C774.308 955.75 772.717 955.75 771.736 956.74C770.755 957.72 770.755 959.31 771.736 960.29L975.483 1164.04C973.836 1166.28 972.863 1169.05 972.863 1172.05C972.863 1179.54 978.938 1185.62 986.432 1185.62C993.925 1185.62 1000 1179.54 1000 1172.05C1000 1164.56 993.925 1158.48 986.432 1158.48C983.753 1158.48 981.256 1159.26 979.152 1160.6L775.289 956.74Z" fill="black"/>
</mask>
<g mask="url(#mask4_770_534)">
<path d="M975.483 1164.04L976.289 1164.63L976.797 1163.94L976.19 1163.33L975.483 1164.04ZM979.152 1160.6L978.445 1161.31L979.013 1161.87L979.69 1161.44L979.152 1160.6ZM772.443 957.44C773.034 956.85 773.992 956.85 774.582 957.44L775.996 956.03C774.625 954.66 772.401 954.66 771.029 956.03L772.443 957.44ZM772.443 959.58C771.852 958.99 771.852 958.03 772.443 957.44L771.029 956.03C769.657 957.4 769.657 959.62 771.029 961L772.443 959.58ZM976.19 1163.33L772.443 959.58L771.029 961L974.776 1164.74L976.19 1163.33ZM973.863 1172.05C973.863 1169.27 974.764 1166.71 976.289 1164.63L974.676 1163.44C972.908 1165.86 971.863 1168.83 971.863 1172.05H973.863ZM986.432 1184.62C979.49 1184.62 973.863 1178.99 973.863 1172.05H971.863C971.863 1180.1 978.386 1186.62 986.432 1186.62V1184.62ZM999 1172.05C999 1178.99 993.373 1184.62 986.432 1184.62V1186.62C994.478 1186.62 1001 1180.1 1001 1172.05H999ZM986.432 1159.48C993.373 1159.48 999 1165.11 999 1172.05H1001C1001 1164.01 994.478 1157.48 986.432 1157.48V1159.48ZM979.69 1161.44C981.637 1160.2 983.949 1159.48 986.432 1159.48V1157.48C983.557 1157.48 980.874 1158.32 978.615 1159.76L979.69 1161.44ZM774.582 957.44L978.445 1161.31L979.86 1159.89L775.996 956.03L774.582 957.44Z" fill="black"/>
</g>
</g>
<defs>
<clipPath id="clip0_770_534">
<rect width="1000" height="1629" fill="white" transform="translate(0 -302)"/>
</clipPath>
</defs>
</svg>
